<svg xmlns="http://www.w3.org/2000/svg" viewBox="0 0 390 844" fill="none" font-family="'Geist','Helvetica Neue',Arial,sans-serif">
  <defs>
    <linearGradient id="teal2" x1="0" y1="0" x2="1" y2="1">
      <stop offset="0" stop-color="#04C0C1"/>
      <stop offset="1" stop-color="#009B9D"/>
    </linearGradient>
    <linearGradient id="dark2" x1="0" y1="0" x2="1" y2="1">
      <stop offset="0" stop-color="#0b2a29"/>
      <stop offset="1" stop-color="#0f403f"/>
    </linearGradient>
  </defs>
  <rect width="390" height="844" fill="#F5F9F9"/>

  <!-- status bar -->
  <text x="26" y="34" fill="#0d1f1e" font-size="14" font-weight="600">9:41</text>
  <g fill="#0d1f1e"><rect x="330" y="24" width="18" height="11" rx="2"/><rect x="352" y="22" width="14" height="13" rx="3"/><rect x="311" y="24" width="14" height="11" rx="2" opacity="0.5"/></g>

  <!-- header -->
  <circle cx="34" cy="74" r="15" fill="#eaf2f2"/>
  <path d="M39 68l-6 6 6 6" stroke="#0d1f1e" stroke-width="1.6" fill="none" stroke-linecap="round" stroke-linejoin="round"/>
  <text x="195" y="79" fill="#0d1f1e" font-size="16" font-weight="700" text-anchor="middle">Membership</text>

  <!-- membership card -->
  <g transform="translate(26,110)">
    <rect width="338" height="196" rx="24" fill="url(#dark2)"/>
    <rect width="338" height="196" rx="24" fill="url(#teal2)" opacity="0.12"/>
    <text x="24" y="40" fill="#7fecec" font-size="11" font-weight="700" letter-spacing="2">AIRBORNE UNLIMITED</text>
    <text x="24" y="82" fill="#ffffff" font-size="26" font-weight="700">Priya Sharma</text>
    <text x="24" y="106" fill="#bfeeee" font-size="13" opacity="0.85">Member since 2024</text>
    <!-- faux qr -->
    <g transform="translate(24,128)" fill="#ffffff">
      <rect width="48" height="48" rx="8" fill="#ffffff"/>
      <g fill="#0b2a29" transform="translate(6,6)">
        <rect width="10" height="10"/><rect x="26" width="10" height="10"/><rect y="26" width="10" height="10"/>
        <rect x="16" y="4" width="4" height="4"/><rect x="20" y="16" width="4" height="4"/><rect x="30" y="24" width="6" height="6"/><rect x="16" y="30" width="4" height="4"/>
      </g>
    </g>
    <text x="86" y="150" fill="#eafeff" font-size="13" opacity="0.9">Show at the studio</text>
    <text x="86" y="170" fill="#eafeff" font-size="13" opacity="0.6">to check in</text>
    <circle cx="300" cy="150" r="30" fill="#ffffff" opacity="0.10"/>
  </g>

  <!-- quick stats -->
  <g transform="translate(26,326)">
    <rect width="162" height="72" rx="16" fill="#ffffff"/>
    <text x="18" y="34" fill="#0d1f1e" font-size="24" font-weight="700">Active</text>
    <text x="18" y="54" fill="#728281" font-size="12">Plan status</text>
    <rect x="176" width="162" height="72" rx="16" fill="#ffffff"/>
    <text x="194" y="34" fill="#0d1f1e" font-size="24" font-weight="700">2 studios</text>
    <text x="194" y="54" fill="#728281" font-size="12">Access included</text>
  </g>

  <text x="26" y="440" fill="#0d1f1e" font-size="17" font-weight="700">Upcoming sessions</text>

  <g transform="translate(26,458)">
    <g>
      <rect width="338" height="76" rx="16" fill="#ffffff"/>
      <rect x="12" y="12" width="52" height="52" rx="12" fill="url(#teal2)"/>
      <text x="78" y="34" fill="#0d1f1e" font-size="15" font-weight="600">Aerial Basics</text>
      <text x="78" y="56" fill="#728281" font-size="12">Lower Parel studio</text>
      <rect x="250" y="26" width="74" height="26" rx="13" fill="#e6f6f6"/>
      <text x="287" y="43" fill="#068384" font-size="11" font-weight="600" text-anchor="middle">Booked</text>
    </g>
    <g transform="translate(0,88)">
      <rect width="338" height="76" rx="16" fill="#ffffff"/>
      <rect x="12" y="12" width="52" height="52" rx="12" fill="url(#teal2)" opacity="0.8"/>
      <text x="78" y="34" fill="#0d1f1e" font-size="15" font-weight="600">Mat Pilates</text>
      <text x="78" y="56" fill="#728281" font-size="12">Mazgaon studio</text>
      <rect x="250" y="26" width="74" height="26" rx="13" fill="#e6f6f6"/>
      <text x="287" y="43" fill="#068384" font-size="11" font-weight="600" text-anchor="middle">Booked</text>
    </g>
  </g>

  <!-- primary button -->
  <g transform="translate(26,656)">
    <rect width="338" height="54" rx="27" fill="#04C0C1"/>
    <text x="169" y="34" fill="#08201f" font-size="15" font-weight="600" text-anchor="middle">Book a new session</text>
  </g>

  <!-- tab bar -->
  <rect x="0" y="768" width="390" height="76" fill="#ffffff"/>
  <line x1="0" y1="768" x2="390" y2="768" stroke="#e8f0ef"/>
  <g font-size="10" text-anchor="middle">
    <g transform="translate(50,792)"><rect x="-8" y="0" width="16" height="14" rx="3" fill="#c4d3d2"/><text y="30" fill="#9fb0af">Home</text></g>
    <g transform="translate(130,792)"><rect x="-8" y="0" width="16" height="14" rx="3" fill="#c4d3d2"/><text y="30" fill="#9fb0af">Classes</text></g>
    <g transform="translate(195,786)"><circle r="22" fill="#04C0C1"/><path d="M-7 0h14M0 -7v14" stroke="#fff" stroke-width="2.4" stroke-linecap="round"/></g>
    <g transform="translate(260,792)"><rect x="-8" y="0" width="16" height="14" rx="3" fill="#c4d3d2"/><text y="30" fill="#9fb0af">Studios</text></g>
    <g transform="translate(340,792)"><circle cx="0" cy="6" r="8" fill="#04C0C1"/><text y="30" fill="#04C0C1">Profile</text></g>
  </g>
</svg>
