<svg xmlns="http://www.w3.org/2000/svg" viewBox="0 0 390 844" fill="none" font-family="'Geist','Helvetica Neue',Arial,sans-serif">
  <defs>
    <linearGradient id="teal" x1="0" y1="0" x2="1" y2="1">
      <stop offset="0" stop-color="#04C0C1"/>
      <stop offset="1" stop-color="#009B9D"/>
    </linearGradient>
    <linearGradient id="tealsoft" x1="0" y1="0" x2="1" y2="1">
      <stop offset="0" stop-color="#0b2a29"/>
      <stop offset="1" stop-color="#0e3b3a"/>
    </linearGradient>
  </defs>
  <rect width="390" height="844" fill="#F5F9F9"/>

  <!-- status bar -->
  <text x="26" y="34" fill="#0d1f1e" font-size="14" font-weight="600">9:41</text>
  <g fill="#0d1f1e"><rect x="330" y="24" width="18" height="11" rx="2"/><rect x="352" y="22" width="14" height="13" rx="3"/><rect x="311" y="24" width="14" height="11" rx="2" opacity="0.5"/></g>

  <!-- header -->
  <g transform="translate(26,66)">
    <circle cx="8" cy="8" r="8" fill="none" stroke="#04C0C1" stroke-width="2"/>
    <path d="M2 12C5 5 11 5 14 12" stroke="#04C0C1" stroke-width="1.6" stroke-linecap="round" fill="none"/>
    <text x="24" y="13" fill="#0d1f1e" font-size="16" font-weight="700" letter-spacing="2">AIRBORNE</text>
  </g>
  <circle cx="356" cy="74" r="16" fill="#eaf2f2"/>
  <circle cx="356" cy="74" r="5.5" fill="none" stroke="#0d1f1e" stroke-width="1.4"/>

  <text x="26" y="128" fill="#5b6b6a" font-size="14">Good morning,</text>
  <text x="26" y="150" fill="#0d1f1e" font-size="22" font-weight="700">Ready to move?</text>

  <!-- hero card -->
  <g transform="translate(26,172)">
    <rect width="338" height="176" rx="22" fill="url(#teal)"/>
    <rect width="338" height="176" rx="22" fill="url(#tealsoft)" opacity="0.15"/>
    <text x="22" y="42" fill="#eafeff" font-size="11" font-weight="700" letter-spacing="2" opacity="0.85">SIGNATURE</text>
    <text x="22" y="78" fill="#ffffff" font-size="27" font-weight="700">Aerial Fitness</text>
    <text x="22" y="102" fill="#eafeff" font-size="13" opacity="0.9">Beginner-friendly · Fully guided</text>
    <rect x="22" y="122" width="120" height="36" rx="18" fill="#ffffff"/>
    <text x="42" y="145" fill="#08201f" font-size="13" font-weight="600">Book a class</text>
    <circle cx="292" cy="44" r="26" fill="#ffffff" opacity="0.14"/>
    <circle cx="292" cy="44" r="14" fill="#ffffff" opacity="0.22"/>
  </g>

  <!-- chips -->
  <g transform="translate(26,372)" font-size="13">
    <rect width="64" height="34" rx="17" fill="#08201f"/><text x="18" y="22" fill="#fff" font-weight="600">Aerial</text>
    <rect x="74" width="70" height="34" rx="17" fill="#eaf2f2"/><text x="90" y="22" fill="#31413f">Pilates</text>
    <rect x="154" width="58" height="34" rx="17" fill="#eaf2f2"/><text x="170" y="22" fill="#31413f">Yoga</text>
    <rect x="222" width="66" height="34" rx="17" fill="#eaf2f2"/><text x="238" y="22" fill="#31413f">Dance</text>
  </g>

  <text x="26" y="446" fill="#0d1f1e" font-size="17" font-weight="700">Popular classes</text>
  <text x="338" y="446" fill="#04C0C1" font-size="13" text-anchor="end">See all</text>

  <!-- rows -->
  <g transform="translate(26,464)">
    <g transform="translate(0,0)">
      <rect width="338" height="72" rx="16" fill="#ffffff"/>
      <rect x="12" y="12" width="48" height="48" rx="12" fill="url(#teal)"/>
      <text x="74" y="34" fill="#0d1f1e" font-size="15" font-weight="600">Aerial Basics</text>
      <text x="74" y="54" fill="#728281" font-size="12">50 min · Beginner</text>
      <circle cx="312" cy="36" r="14" fill="none" stroke="#dbe7e6" stroke-width="1.4"/>
      <path d="M312 30c-2-3-7-1-7 2 0 3 7 7 7 7s7-4 7-7c0-3-5-5-7-2z" fill="#04C0C1"/>
    </g>
    <g transform="translate(0,84)">
      <rect width="338" height="72" rx="16" fill="#ffffff"/>
      <rect x="12" y="12" width="48" height="48" rx="12" fill="url(#teal)" opacity="0.85"/>
      <text x="74" y="34" fill="#0d1f1e" font-size="15" font-weight="600">Mat Pilates</text>
      <text x="74" y="54" fill="#728281" font-size="12">45 min · All levels</text>
      <circle cx="312" cy="36" r="14" fill="none" stroke="#dbe7e6" stroke-width="1.4"/>
    </g>
    <g transform="translate(0,168)">
      <rect width="338" height="72" rx="16" fill="#ffffff"/>
      <rect x="12" y="12" width="48" height="48" rx="12" fill="url(#teal)" opacity="0.7"/>
      <text x="74" y="34" fill="#0d1f1e" font-size="15" font-weight="600">Vinyasa Flow</text>
      <text x="74" y="54" fill="#728281" font-size="12">60 min · Intermediate</text>
      <circle cx="312" cy="36" r="14" fill="none" stroke="#dbe7e6" stroke-width="1.4"/>
    </g>
  </g>

  <!-- tab bar -->
  <rect x="0" y="768" width="390" height="76" fill="#ffffff"/>
  <line x1="0" y1="768" x2="390" y2="768" stroke="#e8f0ef"/>
  <g fill="#9fb0af" font-size="10" text-anchor="middle">
    <g transform="translate(50,792)"><rect x="-8" y="0" width="16" height="14" rx="3" fill="#04C0C1"/><text y="30" fill="#04C0C1">Home</text></g>
    <g transform="translate(130,792)"><rect x="-8" y="0" width="16" height="14" rx="3" fill="#c4d3d2"/><text y="30">Classes</text></g>
    <g transform="translate(195,786)"><circle r="22" fill="#04C0C1"/><path d="M-7 0h14M0 -7v14" stroke="#fff" stroke-width="2.4" stroke-linecap="round"/></g>
    <g transform="translate(260,792)"><rect x="-8" y="0" width="16" height="14" rx="3" fill="#c4d3d2"/><text y="30">Studios</text></g>
    <g transform="translate(340,792)"><circle cx="0" cy="6" r="8" fill="#c4d3d2"/><text y="30">Profile</text></g>
  </g>
</svg>
